<?xml version="1.0" encoding="UTF-8"?> <!-- Generator: Adobe Illustrator 21.1.0, SVG Export Plug-In . SVG Version: 6.00 Build 0) --> <svg xmlns="http://www.w3.org/2000/svg" xmlns:xlink="http://www.w3.org/1999/xlink" id="Layer_1" x="0px" y="0px" viewBox="0 0 20 20" style="enable-background:new 0 0 20 20;" xml:space="preserve"> <style type="text/css"> .st0{fill:#47BAEB;} </style> <path class="st0" d="M9.5,20c-2.5,0-4.9-1-6.7-2.8S0,13,0,10.5C0,8,1,5.6,2.8,3.8S7,1,9.5,1s4.9,1,6.7,2.8S19,8,19,10.5 s-1,4.9-2.8,6.7S12,20,9.5,20z M9.5,2C4.8,2,1,5.8,1,10.5S4.8,19,9.5,19s8.5-3.8,8.5-8.5S14.2,2,9.5,2z"></path> <path class="st0" d="M7.5,14.5c-0.1,0-0.3,0-0.4-0.1l-3-3c-0.2-0.2-0.2-0.5,0-0.7c0.2-0.2,0.5-0.2,0.7,0l2.6,2.6l6.6-6.6 c0.2-0.2,0.5-0.2,0.7,0s0.2,0.5,0,0.7l-7,7C7.8,14.5,7.6,14.5,7.5,14.5L7.5,14.5z"></path> </svg> 